<svg xmlns="http://www.w3.org/2000/svg" width="1280" height="820" viewBox="0 0 1280 820">
  <rect width="1280" height="820" fill="#f7f8fb"/>
  <rect x="0" y="0" width="1280" height="56" fill="#ffffff" stroke="#d8dde8"/>
  <text x="28" y="35" font-family="Arial, sans-serif" font-size="20" fill="#1f2937">Insurance Broker Proposal Workspace</text>
  <rect x="24" y="82" width="260" height="704" fill="#ffffff" stroke="#d8dde8"/>
  <text x="44" y="116" font-family="Arial, sans-serif" font-size="16" fill="#111827">Client Cases</text>
  <rect x="44" y="140" width="220" height="74" rx="4" fill="#eef6ff" stroke="#8bb8e8"/>
  <text x="58" y="166" font-family="Arial, sans-serif" font-size="13" fill="#1f2937">ACME Corp Benefits Renewal</text>
  <text x="58" y="190" font-family="Arial, sans-serif" font-size="12" fill="#4b5563">Status: Draft proposal</text>
  <rect x="44" y="230" width="220" height="74" rx="4" fill="#ffffff" stroke="#d8dde8"/>
  <text x="58" y="256" font-family="Arial, sans-serif" font-size="13" fill="#1f2937">Retail Family Plan Review</text>
  <text x="58" y="280" font-family="Arial, sans-serif" font-size="12" fill="#4b5563">Status: Missing data</text>
  <rect x="312" y="82" width="596" height="704" fill="#ffffff" stroke="#d8dde8"/>
  <text x="336" y="116" font-family="Arial, sans-serif" font-size="16" fill="#111827">Proposal Draft</text>
  <rect x="336" y="140" width="548" height="86" rx="4" fill="#f9fafb" stroke="#d8dde8"/>
  <text x="356" y="168" font-family="Arial, sans-serif" font-size="13" fill="#111827">Recommended reimbursement package</text>
  <text x="356" y="194" font-family="Arial, sans-serif" font-size="12" fill="#4b5563">Plan A + Plan C. Reason: budget fit, deductible profile, and employer constraints.</text>
  <rect x="336" y="252" width="548" height="164" rx="4" fill="#ffffff" stroke="#d8dde8"/>
  <text x="356" y="282" font-family="Arial, sans-serif" font-size="13" fill="#111827">Editable explanation for client</text>
  <line x1="356" y1="308" x2="842" y2="308" stroke="#e5e7eb"/>
  <line x1="356" y1="340" x2="812" y2="340" stroke="#e5e7eb"/>
  <line x1="356" y1="372" x2="858" y2="372" stroke="#e5e7eb"/>
  <rect x="336" y="444" width="260" height="48" rx="4" fill="#e8f5ee" stroke="#8ac7a4"/>
  <text x="356" y="474" font-family="Arial, sans-serif" font-size="13" fill="#166534">Accept AI suggestion</text>
  <rect x="624" y="444" width="260" height="48" rx="4" fill="#fff7ed" stroke="#fdba74"/>
  <text x="644" y="474" font-family="Arial, sans-serif" font-size="13" fill="#9a3412">Request risk review</text>
  <rect x="936" y="82" width="320" height="704" fill="#ffffff" stroke="#d8dde8"/>
  <text x="960" y="116" font-family="Arial, sans-serif" font-size="16" fill="#111827">Evidence & Risk</text>
  <rect x="960" y="140" width="272" height="120" rx="4" fill="#f9fafb" stroke="#d8dde8"/>
  <text x="980" y="168" font-family="Arial, sans-serif" font-size="13" fill="#111827">Source references</text>
  <text x="980" y="196" font-family="Arial, sans-serif" font-size="12" fill="#4b5563">Product sheet v2026.07</text>
  <text x="980" y="222" font-family="Arial, sans-serif" font-size="12" fill="#4b5563">Client intake form</text>
  <rect x="960" y="286" width="272" height="150" rx="4" fill="#fff1f2" stroke="#fda4af"/>
  <text x="980" y="314" font-family="Arial, sans-serif" font-size="13" fill="#9f1239">Risk flags</text>
  <text x="980" y="342" font-family="Arial, sans-serif" font-size="12" fill="#4b5563">No final pricing authority</text>
  <text x="980" y="368" font-family="Arial, sans-serif" font-size="12" fill="#4b5563">Compliance review required</text>
  <rect x="960" y="462" width="272" height="130" rx="4" fill="#eff6ff" stroke="#93c5fd"/>
  <text x="980" y="490" font-family="Arial, sans-serif" font-size="13" fill="#1e3a8a">Next actions</text>
  <text x="980" y="518" font-family="Arial, sans-serif" font-size="12" fill="#4b5563">Collect missing budget</text>
  <text x="980" y="544" font-family="Arial, sans-serif" font-size="12" fill="#4b5563">Send to broker review</text>
</svg>
